# xmcd CD database file
#
# Track frame offsets:
#	150
#	21033
#	30577
#	45944
#	65028
#	83842
#	105143
#	127880
#	155936
#	171710
#	197828
#	215997
#	240765
#
# Disc length: 3411 seconds
#
# Revision: 0
# Processed by: cddbd v1.5.1PL2 Copyright (c) Steve Scherf et al.
# Submitted via: CDex 1.51
#
DISCID=ab0d510d
DTITLE=Yves Dormoy - J'ai longtemps détesté les villes
DYEAR=2002
DGENRE=Jazz
TTITLE0=Comme si
TTITLE1=Les ondes
TTITLE2=J'ai longtemps détesté les villes
TTITLE3=D'immenses escaliers
TTITLE4=L'ingénieur
TTITLE5=D'une autre culture aussi
TTITLE6=Duende
TTITLE7=L'ombre tragique des ormes
TTITLE8=Un instant d'inattention
TTITLE9=Velvette
TTITLE10=Avec les extémités
TTITLE11=Nuit de rêve
TTITLE12=La mariée
EXTD=YEAR: 2002
EXTT0=
EXTT1=
EXTT2=
EXTT3=
EXTT4=
EXTT5=
EXTT6=
EXTT7=
EXTT8=
EXTT9=
EXTT10=
EXTT11=
EXTT12=
PLAYORDER=
